<svg xmlns="http://www.w3.org/2000/svg" width="44.5" height="31" viewBox="0 0 44.5 31"><g transform="translate(-46.701 -164.252)"><path d="M82.548,171.919a12.592,12.592,0,0,0-22.233-1.8A9.895,9.895,0,0,0,60.6,189.9h22.05c4.971,0,8.55-4.03,8.55-9A8.993,8.993,0,0,0,82.548,171.919Z" fill="#b2ebf2"/><path d="M66.951,166.052a10.788,10.788,0,0,1,9.94,6.573l.448,1.05,1.14.043A7.17,7.17,0,0,1,85.4,180.9c0,4.105-2.9,7.2-6.75,7.2H56.6a8.095,8.095,0,0,1-.234-16.186l.956-.028.512-.807a10.754,10.754,0,0,1,9.116-5.029Zm0-1.8a12.581,12.581,0,0,0-10.636,5.864A9.895,9.895,0,0,0,56.6,189.9h22.05c4.971,0,8.55-4.03,8.55-9a8.993,8.993,0,0,0-8.653-8.983,12.6,12.6,0,0,0-11.6-7.667Z" transform="translate(0)" fill="#546e7a"/><circle cx="2" cy="2" r="2" transform="translate(64.701 191.252)" fill="rgba(255,255,255,0)"/></g></svg>