<svg xmlns="http://www.w3.org/2000/svg" width="35.459" height="35.46" viewBox="0 0 35.459 35.46"><g transform="translate(-49.381 -114.951)"><circle cx="10.89" cy="10.89" r="10.89" transform="translate(60.22 121.791)" fill="#ffcc80"/><path d="M67.11,121.791A10.89,10.89,0,1,0,78,132.681,10.89,10.89,0,0,0,67.11,121.791Zm0,19.98a9.09,9.09,0,1,1,9.09-9.09A9.1,9.1,0,0,1,67.11,141.771Zm0-22.05a.9.9,0,0,0,.9-.9v-2.97a.9.9,0,1,0-1.8,0v2.97A.9.9,0,0,0,67.11,119.721Zm16.83,12.06H80.97a.9.9,0,1,0,0,1.8h2.97a.9.9,0,0,0,0-1.8Zm-16.83,13.86a.9.9,0,0,0-.9.9v2.97a.9.9,0,0,0,1.8,0v-2.97A.9.9,0,0,0,67.11,145.641Zm-13.86-13.86H50.28a.9.9,0,0,0,0,1.8h2.97a.9.9,0,1,0,0-1.8Zm25.125-11.637-2.1,2.1a.9.9,0,1,0,1.272,1.273l2.1-2.1a.9.9,0,1,0-1.272-1.273Zm-.828,21.7a.9.9,0,0,0-1.272,1.273l2.1,2.1a.9.9,0,0,0,1.272-1.273Zm-20.873,0-2.1,2.1a.9.9,0,1,0,1.273,1.273l2.1-2.1a.9.9,0,0,0-1.272-1.273Zm0-18.328a.9.9,0,1,0,1.272-1.273l-2.1-2.1a.9.9,0,1,0-1.273,1.273Z" fill="#546e7a"/></g></svg>