<svg xmlns="http://www.w3.org/2000/svg" width="44.5" height="31.05" viewBox="0 0 44.5 31.05"><g transform="translate(-555.021 -164.143)"><path d="M590.868,171.919a12.592,12.592,0,0,0-22.233-1.8,9.895,9.895,0,0,0,.286,19.786h22.05c4.971,0,8.55-4.03,8.55-9A8.993,8.993,0,0,0,590.868,171.919Z" fill="#b2ebf2"/><path d="M573.889,189.931a.9.9,0,0,0-1.23-.33l-.908.525v-1.233a.9.9,0,1,0-1.8,0v1.233l-1.068-.616a.9.9,0,0,0-.9,1.559l1.068.616-1.068.616a.9.9,0,0,0,.9,1.56l1.068-.617v1.049a.9.9,0,1,0,1.8,0v-1.049l.908.525a.9.9,0,1,0,.9-1.559l-.908-.525.908-.524A.9.9,0,0,0,573.889,189.931Zm3.72-4.142a.9.9,0,0,0,.45-1.679l-.908-.525.908-.524a.9.9,0,1,0-.9-1.559l-.908.524v-1.233a.9.9,0,1,0-1.8,0v1.233l-1.068-.616a.9.9,0,0,0-.9,1.559l1.068.616-1.068.617a.9.9,0,0,0,.9,1.559l1.068-.617v1.049a.9.9,0,1,0,1.8,0v-1.049l.908.525A.9.9,0,0,0,577.609,185.789Zm5.28,4.142a.9.9,0,0,0-1.23-.33l-.908.525v-1.233a.9.9,0,1,0-1.8,0v1.233l-1.068-.616a.9.9,0,0,0-.9,1.559l1.068.616-1.068.616a.9.9,0,0,0,.9,1.56l1.068-.617v1.049a.9.9,0,1,0,1.8,0v-1.049l.908.525a.9.9,0,1,0,.9-1.559l-.908-.525.908-.524A.9.9,0,0,0,582.889,189.931Zm3.979-18.12a12.591,12.591,0,0,0-22.233-1.8,9.894,9.894,0,0,0,.286,19.785h.864a2.646,2.646,0,0,1,.31-.853,2.693,2.693,0,0,1,.935-.947h-2.109a8.095,8.095,0,0,1-.234-16.186l.956-.027.512-.808a10.791,10.791,0,0,1,19.057,1.544l.447,1.05,1.14.043a7.17,7.17,0,0,1,6.922,7.184c0,4.1-2.9,7.2-6.75,7.2h-3.642a2.544,2.544,0,0,1,1.4,1.8h2.238c4.971,0,8.55-4.029,8.55-9A8.992,8.992,0,0,0,586.868,171.811Z" fill="#546e7a"/></g></svg>