<svg xmlns="http://www.w3.org/2000/svg" width="48.278" height="33.867" viewBox="0 0 48.278 33.867"><g transform="translate(-46.701 -214.498)"><path d="M83.865,228.5a10.945,10.945,0,0,1,7.414,4.651,7.749,7.749,0,1,0-11.866-9.735A14.572,14.572,0,0,1,83.865,228.5Z" fill="#ffcc80"/><path d="M82.548,230.382a12.592,12.592,0,0,0-22.233-1.8,9.9,9.9,0,0,0,.286,19.786h22.05c4.971,0,8.55-4.03,8.55-9A8.993,8.993,0,0,0,82.548,230.382Z" fill="#b2ebf2"/><path d="M74.075,221.146a.9.9,0,0,0,1.272-1.272l-1.527-1.528a.9.9,0,0,0-1.273,1.273Zm14.891.264a.9.9,0,0,0,.637-.264l1.527-1.527a.9.9,0,0,0-1.273-1.273l-1.527,1.528a.9.9,0,0,0,.636,1.536Zm-7.128-2.953a.9.9,0,0,0,.9-.9V215.4a.9.9,0,0,0-1.8,0v2.159A.9.9,0,0,0,81.838,218.457ZM89.6,234.129A.9.9,0,1,0,88.33,235.4l1.527,1.528a.9.9,0,0,0,1.273-1.273Zm4.476-7.392h-2.16a.9.9,0,0,0,0,1.8h2.16a.9.9,0,0,0,0-1.8Zm-12.24-7.019a7.906,7.906,0,0,0-6.718,3.739,14.366,14.366,0,0,1,1.424,1.123,6.115,6.115,0,1,1,9.565,7.432,10.707,10.707,0,0,1,1.115,1.42,7.911,7.911,0,0,0-5.386-13.714Zm-3.291,10.664a12.592,12.592,0,0,0-22.233-1.8,9.9,9.9,0,0,0,.286,19.786h22.05c4.971,0,8.55-4.03,8.55-9A8.993,8.993,0,0,0,78.548,230.382Zm.1,16.183H56.6a8.095,8.095,0,0,1-.234-16.186l.956-.028.512-.807a10.791,10.791,0,0,1,19.056,1.544l.448,1.05,1.14.043a7.17,7.17,0,0,1,6.922,7.184C85.4,243.47,82.5,246.565,78.651,246.565Z" fill="#546e7a"/></g></svg>