<svg xmlns="http://www.w3.org/2000/svg" width="48.278" height="39.158" viewBox="0 0 48.278 39.158"><g transform="translate(-555.021 -214.498)"><path d="M592.365,228.5a10.945,10.945,0,0,1,7.414,4.651,7.749,7.749,0,1,0-11.866-9.735A14.573,14.573,0,0,1,592.365,228.5Z" fill="#ffcc80"/><path d="M590.868,230.382a12.592,12.592,0,0,0-22.233-1.8,9.9,9.9,0,0,0,.286,19.786h22.05c4.971,0,8.55-4.03,8.55-9A8.993,8.993,0,0,0,590.868,230.382Z" fill="#b2ebf2"/><path d="M582.889,248.394a.9.9,0,0,0-1.23-.329l-.908.524v-1.233a.9.9,0,1,0-1.8,0v1.233l-1.068-.616a.9.9,0,0,0-.9,1.559l1.068.616-1.068.616a.9.9,0,0,0,.451,1.68.89.89,0,0,0,.449-.12l1.068-.617v1.049a.9.9,0,1,0,1.8,0v-1.049l.908.525a.9.9,0,1,0,.9-1.559l-.908-.525.908-.524A.9.9,0,0,0,582.889,248.394Zm-5.28-4.142a.9.9,0,0,0,.45-1.679l-.908-.525.908-.524a.9.9,0,1,0-.9-1.559l-.908.524v-1.233a.9.9,0,1,0-1.8,0v1.233l-1.068-.616a.9.9,0,0,0-.9,1.559l1.068.616-1.068.617a.9.9,0,0,0,.451,1.679.89.89,0,0,0,.449-.12l1.068-.617v1.049a.9.9,0,1,0,1.8,0v-1.049l.908.525A.9.9,0,0,0,577.609,244.252Zm9.259-13.978a12.591,12.591,0,0,0-22.233-1.8,9.894,9.894,0,0,0,.286,19.785h.864a2.646,2.646,0,0,1,.31-.853,2.693,2.693,0,0,1,.935-.947h-2.109a8.095,8.095,0,0,1-.234-16.186l.956-.027.512-.808a10.791,10.791,0,0,1,19.057,1.544l.447,1.05,1.14.044a7.169,7.169,0,0,1,6.922,7.183c0,4.1-2.9,7.2-6.75,7.2h-3.642a2.544,2.544,0,0,1,1.4,1.8h2.238c4.971,0,8.55-4.029,8.55-9A8.992,8.992,0,0,0,586.868,230.274Zm-12.979,18.12a.9.9,0,0,0-1.23-.329l-.908.524v-1.233a.9.9,0,1,0-1.8,0v1.233l-1.068-.616a.9.9,0,0,0-.9,1.559l1.068.616-1.068.616a.9.9,0,0,0,.451,1.68.89.89,0,0,0,.449-.12l1.068-.617v1.049a.9.9,0,1,0,1.8,0v-1.049l.908.525a.9.9,0,1,0,.9-1.559l-.908-.525.908-.524A.9.9,0,0,0,573.889,248.394Zm16.27-28.676a7.906,7.906,0,0,0-6.718,3.739,14.357,14.357,0,0,1,1.424,1.123,6.115,6.115,0,1,1,9.565,7.432,10.7,10.7,0,0,1,1.115,1.42,7.911,7.911,0,0,0-5.386-13.714Zm0-1.261a.9.9,0,0,0,.9-.9V215.4a.9.9,0,0,0-1.8,0v2.159A.9.9,0,0,0,590.159,218.457Zm7.128,2.953a.9.9,0,0,0,.636-.264l1.527-1.527a.9.9,0,0,0-1.273-1.273l-1.527,1.528a.9.9,0,0,0,.637,1.536Zm-14.892-.264a.9.9,0,0,0,1.272-1.272l-1.527-1.528a.9.9,0,0,0-1.273,1.273Zm15.528,12.983a.9.9,0,1,0-1.273,1.272l1.527,1.528a.9.9,0,0,0,1.273-1.273Zm4.476-7.392h-2.16a.9.9,0,0,0,0,1.8h2.16a.9.9,0,0,0,0-1.8Z" fill="#546e7a"/></g></svg>