<svg xmlns="http://www.w3.org/2000/svg" width="48.278" height="40.167" viewBox="0 0 48.278 40.167"><g transform="translate(-216.141 -214.498)"><path d="M253.365,228.5a10.945,10.945,0,0,1,7.414,4.651,7.749,7.749,0,1,0-11.866-9.735A14.572,14.572,0,0,1,253.365,228.5Z" fill="#ffcc80"/><path d="M251.988,230.382a12.592,12.592,0,0,0-22.233-1.8,9.9,9.9,0,0,0,.286,19.786h22.05c4.971,0,8.55-4.03,8.55-9A8.993,8.993,0,0,0,251.988,230.382Z" fill="#b2ebf2"/><path d="M247.988,230.382a12.592,12.592,0,0,0-22.233-1.8,9.9,9.9,0,0,0,.286,19.786h.92l.893-1.8h-1.813a8.095,8.095,0,0,1-.234-16.186l.956-.028.512-.807a10.792,10.792,0,0,1,19.057,1.544l.447,1.05,1.14.043a7.17,7.17,0,0,1,6.922,7.184c0,4.1-2.9,7.2-6.75,7.2h-3.279a17.776,17.776,0,0,1,.51,1.8h2.769c4.971,0,8.55-4.03,8.55-9A8.993,8.993,0,0,0,247.988,230.382Zm-11.367,20.371a3.612,3.612,0,1,0,7.2,0c0-3.9-3.6-9.588-3.6-9.588S236.621,246.853,236.621,250.753Zm3.6,2.112a1.977,1.977,0,0,1-1.8-2.112,16.173,16.173,0,0,1,1.8-6.248,16.173,16.173,0,0,1,1.8,6.248A1.978,1.978,0,0,1,240.221,252.865Zm-6.4-10.225a.9.9,0,1,0-1.593-.839l-3.263,6.581h3.672l-2.311,4.84a.9.9,0,1,0,1.625.775l3.54-7.415h-3.544Zm9.7-21.494a.9.9,0,0,0,1.272-1.272l-1.527-1.528a.9.9,0,0,0-1.273,1.273Zm7.764-2.689a.9.9,0,0,0,.9-.9V215.4a.9.9,0,0,0-1.8,0v2.159A.9.9,0,0,0,251.279,218.457Zm7.127,2.953a.9.9,0,0,0,.637-.264l1.527-1.527a.9.9,0,0,0-1.273-1.273l-1.527,1.528a.9.9,0,0,0,.636,1.536Zm5.113,5.327h-2.16a.9.9,0,0,0,0,1.8h2.16a.9.9,0,0,0,0-1.8Zm-12.24-7.019a7.906,7.906,0,0,0-6.718,3.739,14.366,14.366,0,0,1,1.424,1.123,6.115,6.115,0,1,1,9.565,7.432,10.708,10.708,0,0,1,1.115,1.42,7.911,7.911,0,0,0-5.386-13.714Zm7.764,14.411a.9.9,0,1,0-1.273,1.272l1.527,1.528a.9.9,0,0,0,1.273-1.273Z" fill="#546e7a"/></g></svg>