<svg xmlns="http://www.w3.org/2000/svg" width="44.5" height="32.319" viewBox="0 0 44.5 32.319"><g transform="translate(-220.814 -113.951)"><path d="M258.9,123a8.394,8.394,0,0,0-14.822,1.2,6,6,0,0,0-5.084,3.2,10.13,10.13,0,0,1,7.4,3.949,8.337,8.337,0,0,1,6.468,4.834h5.85A6.6,6.6,0,0,0,258.9,123Zm-13.5,10.077a8.395,8.395,0,0,0-14.822,1.2,5.994,5.994,0,0,0-5.769,5.988,5.751,5.751,0,0,0,5.7,6h14.7a6.6,6.6,0,0,0,.191-13.191Z" fill="#b2ebf2"/><path d="M241.4,133.08a8.394,8.394,0,0,0-14.822,1.2,5.994,5.994,0,0,0-5.769,5.988,5.751,5.751,0,0,0,5.7,6h14.7a6.6,6.6,0,0,0,.191-13.19Zm-.191,11.39h-14.7a3.97,3.97,0,0,1-3.9-4.2,4.183,4.183,0,0,1,4.038-4.19l1.14-.043.447-1.05a6.594,6.594,0,0,1,11.646-.943l.512.807.956.028a4.8,4.8,0,0,1-.139,9.591ZM254.9,123a8.394,8.394,0,0,0-14.822,1.2,6,6,0,0,0-5.084,3.2,10.2,10.2,0,0,1,1.934.313A4.169,4.169,0,0,1,240.152,126l1.14-.044.447-1.05a6.594,6.594,0,0,1,11.646-.942l.512.807.956.027a4.8,4.8,0,0,1-.139,9.591h-6.957a8.377,8.377,0,0,1,1.108,1.8h5.849A6.6,6.6,0,0,0,254.9,123Z" fill="#546e7a"/><circle cx="2" cy="2" r="2" transform="translate(257.701 113.951)" fill="rgba(255,255,255,0)"/></g></svg>