<svg xmlns="http://www.w3.org/2000/svg" width="44.667" height="32.049" viewBox="0 0 44.667 32.049"><g transform="translate(-159.661 -164.252)"><path d="M195.674,171.919a12.591,12.591,0,0,0-22.232-1.8,9.895,9.895,0,0,0,.286,19.786h22.05c4.97,0,8.55-4.03,8.55-9A8.994,8.994,0,0,0,195.674,171.919Z" fill="#b2ebf2"/><path d="M181.523,196.281a.9.9,0,0,1-.692-1.069l.472-2.2a.9.9,0,0,1,1.76.378l-.471,2.2a.9.9,0,0,1-.88.711A.854.854,0,0,1,181.523,196.281Zm-3.6,0a.9.9,0,0,1-.692-1.069l.472-2.2a.9.9,0,0,1,1.76.378l-.471,2.2a.9.9,0,0,1-.88.711A.854.854,0,0,1,177.923,196.281Zm-3.6,0a.9.9,0,0,1-.692-1.069l.472-2.2a.9.9,0,0,1,1.76.378l-.471,2.2a.9.9,0,0,1-.88.711A.854.854,0,0,1,174.323,196.281Zm8.291-5.094a.9.9,0,0,1-.69-1.069l.517-2.411a.9.9,0,1,1,1.76.377l-.518,2.411a.9.9,0,0,1-.878.712A.871.871,0,0,1,182.614,191.187Zm-3.6,0a.9.9,0,0,1-.69-1.069l.517-2.411a.9.9,0,1,1,1.76.377l-.518,2.411a.9.9,0,0,1-.878.712A.871.871,0,0,1,179.014,191.187Zm-3.6,0a.9.9,0,0,1-.69-1.069l.517-2.411a.9.9,0,1,1,1.76.377l-.518,2.411a.9.9,0,0,1-.878.712A.871.871,0,0,1,175.414,191.187Zm10.238-1.285.387-1.8h5.572c3.848,0,6.75-3.1,6.75-7.2a7.17,7.17,0,0,0-6.922-7.184l-1.14-.043-.446-1.049a10.792,10.792,0,0,0-19.058-1.544l-.512.807-.956.028a8.094,8.094,0,0,0,.234,16.186h3.753l-.386,1.8h-3.367a9.895,9.895,0,0,1-.286-19.786,12.592,12.592,0,0,1,22.234,1.8,8.994,8.994,0,0,1,8.653,8.983c0,4.97-3.579,9-8.55,9Zm-1.9-4.021a.9.9,0,0,1-.691-1.068l.471-2.2a.9.9,0,0,1,1.761.377l-.472,2.2a.9.9,0,0,1-.879.712A.858.858,0,0,1,183.751,185.881Zm-3.6,0a.9.9,0,0,1-.691-1.068l.471-2.2a.9.9,0,0,1,1.761.377l-.472,2.2a.9.9,0,0,1-.879.712A.858.858,0,0,1,180.151,185.881Zm-3.6,0a.9.9,0,0,1-.691-1.068l.471-2.2a.9.9,0,0,1,1.761.377l-.472,2.2a.9.9,0,0,1-.879.712A.858.858,0,0,1,176.551,185.881Z" fill="#546e7a"/></g></svg>