<svg xmlns="http://www.w3.org/2000/svg" width="44.5" height="31.95" viewBox="0 0 44.5 31.95"><g transform="translate(-103.181 -164.252)"><path d="M139.028,171.919a12.592,12.592,0,0,0-22.233-1.8,9.895,9.895,0,0,0,.286,19.786h22.05c4.971,0,8.55-4.03,8.55-9A8.993,8.993,0,0,0,139.028,171.919Z" fill="#b2ebf2"/><path d="M135.028,171.919a12.592,12.592,0,0,0-22.233-1.8,9.895,9.895,0,0,0,.286,19.786h5.211a15.4,15.4,0,0,1,.563-1.8h-5.774a8.095,8.095,0,0,1-.234-16.186l.956-.028.512-.807a10.792,10.792,0,0,1,19.057,1.544l.447,1.05,1.14.043a7.17,7.17,0,0,1,6.922,7.184c0,4.105-2.9,7.2-6.75,7.2h-7.223a15.2,15.2,0,0,1,.562,1.8h6.661c4.971,0,8.55-4.03,8.55-9A8.993,8.993,0,0,0,135.028,171.919Zm-15.2,20.371a3.612,3.612,0,1,0,7.2,0c0-3.9-3.6-9.588-3.6-9.588S119.831,188.39,119.831,192.29Zm3.6,2.112a1.978,1.978,0,0,1-1.8-2.112,16.173,16.173,0,0,1,1.8-6.248,16.173,16.173,0,0,1,1.8,6.248A1.977,1.977,0,0,1,123.431,194.4Z" fill="#546e7a"/></g></svg>